<?xml version="1.0" encoding="utf-8"?>
<!-- Generator: Adobe Illustrator 25.0.0, SVG Export Plug-In . SVG Version: 6.00 Build 0)  -->
<svg version="1.1" id="Vrstva_1" xmlns="http://www.w3.org/2000/svg" xmlns:xlink="http://www.w3.org/1999/xlink" x="0px" y="0px"
	 viewBox="0 0 500 500" style="enable-background:new 0 0 500 500;" xml:space="preserve">
<style type="text/css">
	.st0{fill:url(#SVGID_1_);}
	.st1{fill:#FFFFFF;}
</style>
<linearGradient id="SVGID_1_" gradientUnits="userSpaceOnUse" x1="4.3652" y1="494.1656" x2="502.9293" y2="-1.5522" gradientTransform="matrix(1 -2.862666e-03 2.862666e-03 1 -0.6821 0.7492)">
	<stop  offset="0" style="stop-color:#EDC122"/>
	<stop  offset="0.5324" style="stop-color:#B46122"/>
	<stop  offset="1" style="stop-color:#8C1818"/>
</linearGradient>
<path class="st0" d="M403.7,499.6l-305.9,0.9c-53.6,0.2-97.2-43.2-97.3-96.8L-0.4,97.8C-0.6,44.2,42.7,0.6,96.3,0.4l305.9-0.9
	c53.6-0.2,97.2,43.2,97.3,96.8l0.9,305.9C500.6,455.8,457.3,499.4,403.7,499.6z"/>
<rect x="149.8" y="73.7" class="st1" width="53.2" height="352.6"/>
<rect x="149.8" y="366.1" class="st1" width="200.3" height="60.2"/>
<rect x="3.7" y="219.9" transform="matrix(-1.836970e-16 1 -1 -1.836970e-16 429.954 70.046)" class="st1" width="352.6" height="60.2"/>
</svg>
